# xmcd
# 
# Track frame offsets:
#     150
#     14324
#     25421
#     36565
#     50513
#     60957
#     73016
#     86686
#     96531
#     109692
#     121819
#     141395
#     153093
#     162752
#     177377
#     191552
# 
# Disc length: 2720
# 
# Revision: 0
# Processed by: cddbd v1.5.2PL0 Copyright (c) Steve Scherf et al.
# Submitted via: BonkEnc v1.0.6
# 
DISCID=da0a9e10
DTITLE=Acoustic Endeavors - Coming Of Age
DYEAR=1995
DGENRE=Bluegrass
TTITLE0=Highway Blues
TTITLE1=If You Would
TTITLE2=O'Reily's Mule
TTITLE3=Can't Be Found
TTITLE4=Love Don't Live Here Anymore
TTITLE5=My Song
TTITLE6=Raintree County
TTITLE7=Self Portrait
TTITLE8=Cold And Rainy Shore
TTITLE9=Span Of Time
TTITLE10=Jonesborough
TTITLE11=Out On The Line
TTITLE12=But It's Not
TTITLE13=Flowers For Emily
TTITLE14=Coming Down
TTITLE15=The Street
EXTD=
EXTT0=
EXTT1=
EXTT2=
EXTT3=
EXTT4=
EXTT5=
EXTT6=
EXTT7=
EXTT8=
EXTT9=
EXTT10=
EXTT11=
EXTT12=
EXTT13=
EXTT14=
EXTT15=
PLAYORDER=
